<svg version="1.1" xmlns="http://www.w3.org/2000/svg" style="display: block;" viewBox="0 0 2048 2048">
<path transform="translate(0,0)" fill="currentColor" d="M 358.136 1382.2 L 413.958 1382.12 C 447.546 1382.05 478.65 1379.29 505.783 1403.06 C 536.994 1430.41 538.501 1482.97 511.108 1513.39 C 495.177 1531.08 474.872 1538.03 451.619 1539.13 C 433.967 1539.6 415.966 1539.17 398.065 1539.59 L 397.951 1618.22 L 358.047 1618.34 L 358.136 1382.2 z"></path>
<path transform="translate(0,0)" fill="var(--logo-counter, #FFFFFF)" d="M 398.093 1419.21 C 417.046 1419.15 437.963 1417.71 456.508 1420.52 C 491.074 1425.76 500.558 1465.66 478.792 1490.34 C 460.153 1506.95 423.646 1502.32 397.97 1502.2 L 398.093 1419.21 z"></path>
<path transform="translate(0,0)" fill="currentColor" d="M 1405.31 1456.26 C 1515.15 1446.56 1526 1607.47 1424.84 1622.02 C 1402.84 1625.18 1385.27 1619.3 1367.87 1605.8 L 1367.76 1628.85 L 1367.75 1681.78 L 1330.01 1681.85 L 1330.07 1459.06 L 1367.85 1459.09 L 1367.89 1475.11 C 1380.57 1463 1388.62 1459.68 1405.31 1456.26 z"></path>
<path transform="translate(0,0)" fill="var(--logo-counter, #FFFFFF)" d="M 1410.04 1490.37 C 1419.56 1490.85 1426.72 1491.85 1434.98 1497.12 C 1465.91 1516.86 1462.75 1569.95 1428.48 1584.53 C 1423.84 1586.5 1419.36 1587.22 1414.51 1588.09 C 1352.5 1588.9 1346.82 1497.15 1410.04 1490.37 z"></path>
<path transform="translate(0,0)" fill="currentColor" d="M 1225.26 1456.27 C 1246.99 1454.53 1265.67 1457.93 1283.06 1471.88 C 1319.37 1501.01 1323.12 1559.6 1293.91 1594.96 C 1280.89 1610.8 1261.98 1620.65 1241.54 1622.22 C 1219.46 1624.12 1203.88 1619.4 1187.15 1605.3 L 1187.33 1630.56 C 1187.26 1647.64 1187.34 1664.71 1187.57 1681.79 L 1149.97 1681.83 L 1149.92 1459.04 L 1187.67 1459.04 L 1187.39 1474.95 C 1200.58 1463.12 1208.19 1459.7 1225.26 1456.27 z"></path>
<path transform="translate(0,0)" fill="var(--logo-counter, #FFFFFF)" d="M 1228.17 1490.35 C 1288.79 1492.25 1291.85 1577.91 1234.41 1588.03 C 1172.54 1589.42 1166.51 1498.53 1228.17 1490.35 z"></path>
<path transform="translate(0,0)" fill="currentColor" d="M 1027.5 1456.2 C 1053.75 1454.28 1067.35 1455.93 1087.88 1473.18 L 1087.95 1458.99 L 1125.2 1459.01 L 1125.17 1618.18 L 1087.87 1618.36 L 1087.9 1604.91 C 1083.86 1608.23 1079.88 1610.99 1075.63 1613.99 C 1051.06 1626.75 1020.7 1625.75 997.318 1610.7 C 978.949 1598.64 966.208 1579.7 961.969 1558.14 C 952.012 1509.53 978.048 1465.92 1027.5 1456.2 z"></path>
<path transform="translate(0,0)" fill="var(--logo-counter, #FFFFFF)" d="M 1039.48 1490.22 C 1099.04 1487.22 1109.96 1573.77 1051.24 1588.06 C 985.009 1591.96 979.015 1500.48 1039.48 1490.22 z"></path>
<path transform="translate(0,0)" fill="rgb(254,201,2)" d="M 885.477 718.927 L 887.489 719.507 C 911.493 744.819 935.883 769.762 960.651 794.327 C 973.512 807.15 987.845 820.949 1000.11 834.34 C 1002.1 836.512 1002.23 839.578 1002.34 842.392 C 999.544 849.128 930.854 915.703 922.417 921.527 C 917.572 921.76 914.189 921.815 910.656 918.076 C 898.024 904.712 885.794 890.769 873.624 876.992 L 805.172 799.301 C 824.22 765.118 851.776 738.415 885.477 718.927 z"></path>
<path transform="translate(0,0)" fill="rgb(254,201,2)" d="M 1160.9 718.597 C 1183.38 725.541 1219.27 763.027 1231.04 783.459 C 1234.22 788.967 1237.74 795.215 1240.69 800.884 L 1170.86 879.973 C 1159.5 892.82 1147.25 907.558 1134.71 919.212 C 1132.33 921.424 1129.09 921.74 1125.93 922.096 C 1124.73 921.334 1123.55 920.521 1122.41 919.659 C 1113.19 912.738 1096.01 894.239 1086.46 885.56 C 1074.62 873.778 1062.02 862.583 1050.57 850.44 C 1042.66 842.049 1043.7 837.542 1051.23 829.749 C 1064.31 816.23 1077.68 803.133 1090.93 789.861 C 1114.48 766.332 1137.8 742.576 1160.9 718.597 z"></path>
<path transform="translate(0,0)" fill="rgb(107,202,48)" d="M 1023.66 278.751 C 1061.57 319.877 1083.63 393.252 1089.49 448.296 C 1056.72 479.739 1034.75 524.189 1024.22 567.995 C 1020.76 559.488 1016.69 544.062 1012.93 534.002 C 1000.94 501.639 982.073 472.264 957.622 447.909 C 967.281 381.186 981.063 333.829 1023.66 278.751 z"></path>
<path transform="translate(0,0)" fill="rgb(28,149,60)" d="M 780.363 509.413 C 811.213 506.468 851.219 514.808 879.625 526.531 C 929.286 546.791 970.931 582.782 998.172 628.984 C 1005.81 642.161 1010.68 653.953 1016.54 667.892 C 997.817 668.492 983.423 668.943 964.76 671.465 C 946.642 673.363 928.326 677.763 910.752 682.362 C 877.412 618.927 839.017 579.298 778.304 540.874 C 765.096 532.516 749.432 525.664 737.37 518.059 L 735.751 517.026 C 753.534 512.778 761.936 510.867 780.363 509.413 z"></path>
<path transform="translate(0,0)" fill="rgb(28,149,60)" d="M 1243.02 509.423 C 1265.36 507.217 1291.33 511.859 1312.94 517.381 C 1241.75 546.732 1170.27 613.518 1136.78 682.308 C 1126.85 679.558 1116.77 677.501 1106.7 675.327 C 1077.44 670.454 1060.65 668.826 1031.07 667.896 C 1042.6 638.385 1054.75 616.472 1075.73 592.384 C 1118.15 543.455 1178.4 513.572 1243.02 509.423 z"></path>
<path transform="translate(0,0)" fill="currentColor" d="M 858.614 1456.32 C 862.002 1455.81 866.533 1455.87 869.988 1455.82 C 906.805 1455.33 937.147 1480.84 943.495 1517.07 C 945.715 1529.75 945.236 1540.04 944.929 1552.76 C 906.224 1552.8 861.921 1551.4 823.915 1552.85 C 827.918 1566.66 833.123 1575.7 846.799 1583.57 C 860.329 1591.36 882.372 1591.06 896.419 1583.89 C 900.218 1581.94 907.501 1574.98 911.431 1573.87 L 913.694 1575.87 L 934.853 1596.49 C 903.799 1626.58 853.941 1632.16 818.586 1606.5 C 801.056 1593.73 789.388 1574.45 786.201 1553 C 782.413 1530.11 788.052 1506.66 801.833 1488 C 816.29 1468.79 835.343 1459.69 858.614 1456.32 z"></path>
<path transform="translate(0,0)" fill="var(--logo-counter, #FFFFFF)" d="M 859.816 1490.27 C 886.572 1488.55 901.962 1497.38 907.952 1524.1 L 872.75 1524.29 L 823.723 1524.15 C 830.413 1504.54 839.672 1495.22 859.816 1490.27 z"></path>
<path transform="translate(0,0)" fill="currentColor" d="M 1644.52 1456.31 C 1690.72 1450.67 1726.74 1480.5 1731.02 1526.62 C 1731.92 1536.26 1731.63 1543.02 1730.93 1552.78 C 1690.72 1552.48 1650.51 1552.49 1610.29 1552.81 C 1611.65 1557.16 1612.95 1561.37 1615.1 1565.42 C 1620.75 1575.96 1630.36 1583.81 1641.82 1587.24 C 1653.84 1590.86 1671.11 1589.88 1682.58 1584.08 C 1686.69 1581.99 1692.43 1576.51 1697.5 1573.88 L 1699.94 1575.69 L 1721.06 1596.5 C 1707.32 1610.04 1694.45 1617.38 1674.69 1621.06 C 1595.77 1635.79 1543.08 1554.7 1587.59 1488.6 C 1600.23 1469.82 1621.79 1459.66 1644.52 1456.31 z"></path>
<path transform="translate(0,0)" fill="var(--logo-counter, #FFFFFF)" d="M 1647.25 1490.25 C 1673.4 1488.63 1688.24 1498.26 1694.03 1524.13 L 1659.5 1524.26 L 1610.33 1524.15 C 1617.17 1503.71 1626.02 1494.83 1647.25 1490.25 z"></path>
<path transform="translate(0,0)" fill="rgb(254,201,2)" d="M 1004.39 688.551 C 1053.35 685.851 1094.88 690.376 1140.82 707.932 C 1110.11 741.552 1067.53 781.631 1034.71 814.092 C 1031.82 816.956 1028.31 820.33 1024.02 820.486 C 1021.9 820.548 1019.81 819.934 1018.05 818.732 C 1012.02 814.524 987.541 789.862 980.785 782.863 C 957.4 758.638 929.272 733.007 907.028 708.101 C 940.482 694.138 968.686 689.626 1004.39 688.551 z"></path>
<path transform="translate(0,0)" fill="rgb(254,201,2)" d="M 1020.2 860.966 C 1024.14 861.02 1027.74 860.889 1030.78 863.72 C 1056.32 887.498 1081.8 911.764 1106.29 936.6 C 1109.15 939.501 1109.02 942.998 1108.62 946.647 C 1103.46 954.54 1035.53 1024.46 1027.17 1030.09 C 1024.14 1030.12 1020.06 1030.5 1017.79 1028.36 C 991.908 1004.04 967.562 977.853 942.69 952.495 C 938.538 948.262 937.863 946.337 938.208 940.671 C 941.931 933.395 1011.69 867.24 1020.2 860.966 z"></path>
<path transform="translate(0,0)" fill="rgb(254,171,1)" d="M 913.488 963.884 C 915.516 963.695 920.835 963.181 922.289 964.575 C 947.757 988.986 972.412 1015.68 997.117 1040.99 C 1000.33 1044.28 1002.58 1048.9 1003.72 1051.93 C 1001.58 1058.74 931.058 1127.11 923.219 1132.27 C 920.551 1132.32 916.029 1132.47 914 1130.59 C 892.335 1110.54 871.656 1089.31 850.488 1068.72 C 844.133 1062.54 835.439 1054.82 833.173 1046.08 C 835.523 1039.96 904.058 972.597 913.488 963.884 z"></path>
<path transform="translate(0,0)" fill="rgb(254,171,1)" d="M 1127.51 963.08 C 1129.86 963.407 1132.98 963.78 1134.8 965.381 C 1144.78 974.159 1154.58 984.578 1164 994.081 C 1178.81 1009.03 1194.29 1023.74 1208.46 1039.2 C 1210.81 1041.76 1213.14 1045.67 1213.64 1049.16 C 1209.85 1057 1139.08 1126.67 1130.08 1132.37 C 1128.46 1132.35 1126.71 1132.3 1125.14 1131.88 C 1118.15 1130.02 1048.9 1061.87 1044.4 1053.88 C 1043.45 1052.19 1043.22 1051.84 1043.87 1050.03 C 1046.3 1043.34 1119.19 967.302 1127.51 963.08 z"></path>
<path transform="translate(0,0)" fill="rgb(28,149,60)" d="M 810.04 384.864 C 901.034 388.61 973.573 464.265 1000.78 546.538 C 1010.19 574.988 1014.2 600.672 1016.66 630.267 C 1014.12 627.981 1010.58 620.6 1008.87 617.252 C 980.983 562.666 930.057 524.351 871.834 505.982 C 858.137 462.444 837.25 421.506 810.04 384.864 z"></path>
<path transform="translate(0,0)" fill="rgb(28,149,60)" d="M 1229.72 385.41 C 1232.47 385.088 1232.71 385.23 1235.51 385.384 C 1235.98 386.806 1224.96 402.544 1223.27 405.044 C 1201.81 436.966 1187.74 469.269 1175.7 505.574 C 1106.85 530.609 1068.15 561.341 1033.9 626.241 C 1033.14 627.711 1032.79 628.049 1031.79 629.373 C 1031.54 628.672 1031.22 627.919 1031.26 627.153 C 1036.34 516.432 1110.85 397.188 1229.72 385.41 z"></path>
<path transform="translate(0,0)" fill="rgb(254,201,2)" d="M 794.495 821.562 C 798.093 824.137 806.781 835.286 810.118 839.163 C 819.773 850.326 829.503 861.424 839.308 872.456 L 876.09 913.623 C 882.907 921.253 904.14 939.412 895.367 949.068 C 880.338 965.61 863.853 981.487 848.019 997.341 C 807.431 1039.39 812.047 1031.43 773.607 988.149 C 775.803 924.422 767.579 883.967 794.495 821.562 z"></path>
<path transform="translate(0,0)" fill="rgb(254,171,1)" d="M 1124.15 1171.93 C 1126.83 1172.02 1130.11 1172.08 1132.23 1173.79 C 1143.32 1182.79 1154.49 1194.22 1164.74 1204.18 L 1221.73 1259.43 C 1199.67 1286.69 1173.17 1305.62 1141.44 1320.01 C 1137.82 1321.62 1133.34 1323.27 1129.59 1324.76 L 1077.2 1279.53 C 1070.25 1273.51 1044.05 1252.45 1045.97 1247.35 C 1051.02 1234.02 1096.41 1198.87 1107.35 1186.65 C 1112.73 1180.63 1121.02 1174.25 1124.15 1171.93 z"></path>
<path transform="translate(0,0)" fill="rgb(254,171,1)" d="M 916.988 1171.97 C 918.216 1171.98 922.174 1171.92 923.303 1172.84 C 947.897 1192.8 972.089 1216.57 995.195 1238.39 C 998.157 1241.19 1000.24 1245.67 1001.3 1248.53 C 1000.15 1256.99 928.319 1313.94 919.449 1322.91 C 917.527 1324.85 915.445 1323.69 913.09 1323.07 C 874.3 1306.68 852.604 1290.14 825.215 1259.13 L 884.766 1201.63 C 892.709 1193.95 908.647 1177.79 916.988 1171.97 z"></path>
<path transform="translate(0,0)" fill="rgb(254,201,2)" d="M 1249.88 823.67 C 1253.51 826.392 1257.15 840.265 1258.5 844.714 C 1272.82 891.651 1272.13 940.232 1272.6 988.774 C 1234.73 1028.69 1241.8 1041.15 1201.35 999.71 C 1184.45 982.905 1166.58 965.709 1150.65 947.967 C 1147.04 943.951 1150.07 937.258 1153.11 933.666 C 1164.3 920.418 1176.16 907.624 1187.75 894.686 C 1208.72 871.243 1229.43 847.57 1249.88 823.67 z"></path>
<path transform="translate(0,0)" fill="rgb(254,171,1)" d="M 1019.53 1071.84 C 1023.72 1071.6 1027.08 1071.1 1030.4 1074.28 C 1054.79 1097.64 1079.11 1121.25 1102.96 1145.16 C 1105.88 1148.08 1105.94 1151.52 1105.64 1155.32 C 1101.93 1162.04 1037.46 1221.06 1027.26 1228.43 C 1024.46 1228.77 1020.71 1229.41 1018.36 1227.41 C 993.71 1206.4 970.162 1184.02 946.441 1161.93 C 942.05 1158.26 938.634 1151.11 943.294 1146.12 C 958.669 1129.63 975.753 1114.22 991.785 1098.32 C 1000.81 1089.37 1010.08 1080.2 1019.53 1071.84 z"></path>
<path transform="translate(0,0)" fill="currentColor" d="M 694.06 1456.28 C 726.24 1452.46 754.458 1466.54 762.616 1499.51 C 767.134 1517.77 765.929 1538.9 765.931 1557.75 L 765.889 1618.26 L 727.781 1618.17 L 727.837 1559.8 C 727.968 1527.32 732.101 1480.55 681.897 1492.85 C 652.236 1504.35 657.635 1533.97 657.722 1560.1 L 657.741 1618.17 L 619.912 1618.27 L 619.961 1459 L 657.862 1458.97 L 657.802 1474.43 C 669.542 1462.95 678.199 1459.06 694.06 1456.28 z"></path>
<path transform="translate(0,0)" fill="rgb(254,171,1)" d="M 1229.45 1068.08 C 1241.62 1067.88 1263.03 1094.39 1272.1 1103.83 C 1271.88 1156.59 1264.9 1195.47 1235.5 1240.94 C 1227.78 1233.85 1219.88 1226.1 1212.27 1218.84 L 1172.79 1180.56 C 1168.48 1176.38 1147.72 1158.41 1148.43 1152.42 C 1149.24 1145.53 1160.75 1135.36 1166.04 1130.12 C 1180.77 1115.54 1195.81 1100.58 1210.58 1085.98 C 1216.63 1079.99 1222.84 1073.37 1229.45 1068.08 z"></path>
<path transform="translate(0,0)" fill="rgb(254,171,1)" d="M 811.003 1067.88 C 818.33 1067.88 818.875 1068.79 823.765 1073.68 C 839.269 1089.21 854.867 1104.73 870.549 1120.07 C 879.437 1129.27 889.783 1137.77 897.665 1147.85 C 899.959 1150.79 898.033 1156.42 895.888 1158.91 C 889.953 1165.78 882.981 1172.17 876.482 1178.45 C 863.93 1190.46 851.468 1202.57 839.099 1214.77 L 811.971 1241.12 C 782.505 1198.81 775.226 1153.95 774.634 1103.9 C 784.38 1093.96 800.861 1076.2 811.003 1067.88 z"></path>
<path transform="translate(0,0)" fill="currentColor" d="M 1513.15 1382.1 L 1551.04 1382.15 L 1550.97 1618.25 L 1513.14 1618.25 L 1513.15 1382.1 z"></path>
<path transform="translate(0,0)" fill="rgb(254,171,1)" d="M 1019.25 1266.92 C 1021.23 1266.84 1025.86 1266.67 1027.29 1267.74 C 1053.42 1287.23 1079.02 1311.96 1104.23 1332.48 C 1079.13 1339.7 1054.56 1340.12 1028.8 1340.36 C 998.836 1340.68 972.224 1340.18 943.078 1332.33 C 968.804 1310.87 993.623 1288.32 1019.25 1266.92 z"></path>
<path transform="translate(0,0)" fill="currentColor" d="M 553.109 1459.04 L 591.076 1459 L 590.943 1618.17 L 553.144 1618.13 L 553.109 1459.04 z"></path>
<path transform="translate(0,0)" fill="rgb(254,201,2)" d="M 569.412 1381.22 C 583.062 1379.54 595.489 1389.24 597.18 1402.89 C 598.87 1416.54 589.185 1428.97 575.539 1430.68 C 561.872 1432.39 549.412 1422.68 547.719 1409.01 C 546.025 1395.35 555.742 1382.9 569.412 1381.22 z"></path>
<path transform="translate(0,0)" fill="rgb(254,171,1)" d="M 774.124 1021.48 C 779.473 1024.67 794.901 1041.31 795.653 1047.93 C 796.022 1051.17 787.473 1059.28 785.048 1061.76 C 781.676 1065.66 777.605 1069.57 773.952 1073.26 C 773.74 1056 773.797 1038.74 774.124 1021.48 z"></path>
<path transform="translate(0,0)" fill="rgb(254,171,1)" d="M 1271.8 1021.95 C 1273.02 1023.98 1272.67 1066.63 1272.71 1072.47 C 1269.62 1069.71 1266.26 1066.08 1263.32 1063.07 C 1257.44 1057.35 1249.19 1050.74 1253.47 1042.04 C 1256.62 1035.64 1266.58 1027.04 1271.8 1021.95 z"></path>
</svg>